<?xml version="1.0" encoding="UTF-8" standalone="no"?>
<svg
   xmlns:dc="http://purl.org/dc/elements/1.1/"
   xmlns:cc="http://creativecommons.org/ns#"
   xmlns:rdf="http://www.w3.org/1999/02/22-rdf-syntax-ns#"
   xmlns:svg="http://www.w3.org/2000/svg"
   xmlns="http://www.w3.org/2000/svg"
   xmlns:sodipodi="http://sodipodi.sourceforge.net/DTD/sodipodi-0.dtd"
   xmlns:inkscape="http://www.inkscape.org/namespaces/inkscape"
   viewBox="0 0 178.65547 74.783996"
   version="1.1"
   id="svg75"
   sodipodi:docname="logo-mobile.svg"
   inkscape:version="1.0.1 (3bc2e813f5, 2020-09-07, custom)"
   width="178.65547"
   height="74.783997">
  <metadata
     id="metadata81">
    <rdf:RDF>
      <cc:Work
         rdf:about="">
        <dc:format>image/svg+xml</dc:format>
        <dc:type
           rdf:resource="http://purl.org/dc/dcmitype/StillImage" />
        <dc:title></dc:title>
      </cc:Work>
    </rdf:RDF>
  </metadata>
  <defs
     id="defs79" />
  <sodipodi:namedview
     pagecolor="#ffffff"
     bordercolor="#666666"
     borderopacity="1"
     objecttolerance="10"
     gridtolerance="10"
     guidetolerance="10"
     inkscape:pageopacity="0"
     inkscape:pageshadow="2"
     inkscape:window-width="1651"
     inkscape:window-height="731"
     id="namedview77"
     showgrid="false"
     inkscape:zoom="0.75575672"
     inkscape:cx="-179.98287"
     inkscape:cy="37.108441"
     inkscape:window-x="796"
     inkscape:window-y="481"
     inkscape:window-maximized="0"
     inkscape:current-layer="svg75"
     inkscape:document-rotation="0" />
  <g
     aria-label="VdS"
     id="text85"
     style="font-style:normal;font-variant:normal;font-weight:500;font-stretch:normal;font-size:19.2413px;line-height:25px;font-family:ClassicSansRounded;-inkscape-font-specification:'ClassicSansRounded, Medium';font-variant-ligatures:normal;font-variant-caps:normal;font-variant-numeric:normal;font-feature-settings:normal;text-align:start;letter-spacing:0px;word-spacing:0px;writing-mode:lr-tb;text-anchor:start;fill:#000000;fill-opacity:1;stroke:none;stroke-width:1px;stroke-linecap:butt;stroke-linejoin:miter;stroke-opacity:1">
    <path
       d="m 49.344,3.7440013 c -0.672,0 -0.96,0.48 -0.96,1.536 0,0.96 0.288,1.344 0.576,1.344 5.376,0 8.064,1.92 8.064,5.3759997 0,7.392 -9.888,27.648 -15.36,43.104 -0.864,-4.512 -11.52,-32.832 -13.824,-38.688 -0.672,-1.728 -1.056,-3.744 -1.056,-4.704 0,-4.0319997 3.072,-5.3759997 8.832,-5.3759997 0.288,0 0.48,-0.576 0.48,-1.728 0,-0.48 -0.096,-0.864 -0.288,-0.864 -9.024,0.288 -13.728,0.384 -18.048,0.384 -5.088,0 -10.1760001,-0.192 -17.28000006,-0.576 -0.288,0 -0.479999995313111,1.152 -0.479999995313111,1.824 0,0.48 0.09599999531311,0.96 0.287999995313111,0.96 2.87999996,0.192 5.18399996,1.536 8.06399996,6.0479997 2.2080001,3.552 22.0800001,53.568 23.6160001,59.712 0.288,1.248 2.016,1.632 3.648,1.632 1.536,0 3.648,-0.192 3.744,-1.152 0.48,-2.784 21.12,-51.744 23.616,-57.408 2.496,-5.6639997 5.472,-8.1599997 9.12,-8.7359997 0.672,-0.096 0.864,-0.672 0.864,-1.344 0,-0.864 -0.384,-1.44 -0.576,-1.44 -1.536,0.288 -6.912,0.48 -10.848,0.48 -5.184,0 -9.12,-0.096 -12.192,-0.384 z"
       style="font-style:normal;font-variant:normal;font-weight:bold;font-stretch:normal;font-size:96px;font-family:'Baskerville 120 Pro';-inkscape-font-specification:'Baskerville 120 Pro, Bold';font-variant-ligatures:normal;font-variant-caps:normal;font-variant-numeric:normal;font-variant-east-asian:normal"
       id="path38" />
    <path
       d="m 100.89565,62.208001 c -2.015997,4.32 -4.607997,5.376 -8.927997,5.376 -5.664,0 -9.888,-4.608 -9.888,-16.8 0,-11.52 4.608,-17.472 10.56,-17.472 4.608,0 8.639997,2.976 8.639997,6.912 0,6.528 0,13.44 -0.384,21.984 z m 18.336,6.048 c -2.88,-0.192 -4.992,-0.864 -4.992,-3.744 0,-5.28 0,-20.352 0.768,-38.88 0.48,-17.2799997 0.48,-23.4239997 0.48,-24.76799966 0,-0.384 -0.48,-0.8639999972266 -1.536,-0.8639999972266 -0.768,0 -11.904,1.5359999572266 -20.063997,1.5359999572266 -0.384,0 -0.48,0.672 -0.48,1.44 0,0.672 0.096,1.248 0.48,1.248 5.856,0 7.199997,0.864 7.199997,4.608 0,3.0719997 0.384,14.3999997 0.288,24.4799997 -3.263997,-3.648 -6.623997,-5.664 -13.823997,-5.664 -11.616,0 -21.12,9.504 -21.12,23.808 0,13.92 10.08,22.368 20.256,22.368 6.144,0 10.944,-2.592 14.975997,-6.816 0,2.304 -0.384,5.952 -0.384,6.72 0,0.768 0.192,1.056 1.056,1.056 0.576,0 1.44,-0.384 2.688,-0.768 3.264,-0.96 13.728,-2.496 16.992,-2.496 0.48,0 0.672,-0.576 0.672,-1.632 0,-0.768 -0.096,-1.44 -0.96,-1.44 z"
       style="font-style:normal;font-variant:normal;font-weight:bold;font-stretch:normal;font-size:96px;font-family:'Baskerville 120 Pro';-inkscape-font-specification:'Baskerville 120 Pro, Bold';font-variant-ligatures:normal;font-variant-caps:normal;font-variant-numeric:normal;font-variant-east-asian:normal"
       id="path40" />
    <path
       d="m 129.40747,70.272001 c 0,0.864 0.96,1.248 1.824,1.248 0.48,0 1.344,-0.192 1.344,-0.48 0,-1.44 0.96,-3.456 2.496,-3.456 2.592,0 6.72,6.24 19.968,6.24 11.808,0 23.616,-7.968 23.616,-20.928 0,-30.144 -35.136,-19.488 -35.136,-36.48 0,-6.4319997 3.744,-10.5599997 10.56,-10.5599997 10.944,0 15.552,8.4479997 15.552,17.5679997 0,0.672 0.672,0.96 1.536,0.96 0.768,0 1.44,-0.288 1.44,-0.864 0,-4.224 0.96,-18.9119997 0.96,-19.6799997 0,-0.48 -0.576,-0.768 -1.44,-0.768 -0.672,0 -1.344,0.192 -1.44,0.48 -0.48,1.632 -1.44,1.824 -2.304,1.824 -1.632,0 -5.376,-3.36 -14.304,-3.36 -13.248,0 -22.752,8.9279997 -22.752,20.5439997 0,25.92 34.368,17.184 34.368,36.48 0,6.432 -3.36,10.944 -11.616,10.944 -10.656,0 -20.16,-8.736 -20.16,-22.752 0,-0.48 -0.576,-0.576 -1.248,-0.576 -0.864,0 -1.824,0.384 -1.824,0.864 0,3.936 -0.672,18.432 -1.44,22.752 z"
       style="font-style:normal;font-variant:normal;font-weight:bold;font-stretch:normal;font-size:96px;font-family:'Baskerville 120 Pro';-inkscape-font-specification:'Baskerville 120 Pro, Bold';font-variant-ligatures:normal;font-variant-caps:normal;font-variant-numeric:normal;font-variant-east-asian:normal"
       id="path42" />
  </g>
</svg>
