<?xml version="1.0" encoding="UTF-8" standalone="no"?>
<svg
   xmlns:dc="http://purl.org/dc/elements/1.1/"
   xmlns:cc="http://creativecommons.org/ns#"
   xmlns:rdf="http://www.w3.org/1999/02/22-rdf-syntax-ns#"
   xmlns:svg="http://www.w3.org/2000/svg"
   xmlns="http://www.w3.org/2000/svg"
   xmlns:sodipodi="http://sodipodi.sourceforge.net/DTD/sodipodi-0.dtd"
   xmlns:inkscape="http://www.inkscape.org/namespaces/inkscape"
   viewBox="0 0 838.94208 74.783996"
   version="1.1"
   id="svg75"
   sodipodi:docname="logo.svg"
   inkscape:version="1.0.1 (3bc2e813f5, 2020-09-07, custom)"
   width="838.94208"
   height="74.783997">
  <metadata
     id="metadata81">
    <rdf:RDF>
      <cc:Work
         rdf:about="">
        <dc:format>image/svg+xml</dc:format>
        <dc:type
           rdf:resource="http://purl.org/dc/dcmitype/StillImage" />
        <dc:title />
      </cc:Work>
    </rdf:RDF>
  </metadata>
  <defs
     id="defs79" />
  <sodipodi:namedview
     pagecolor="#ffffff"
     bordercolor="#666666"
     borderopacity="1"
     objecttolerance="10"
     gridtolerance="10"
     guidetolerance="10"
     inkscape:pageopacity="0"
     inkscape:pageshadow="2"
     inkscape:window-width="1759"
     inkscape:window-height="731"
     id="namedview77"
     showgrid="false"
     inkscape:zoom="0.75575672"
     inkscape:cx="257.32717"
     inkscape:cy="37.108442"
     inkscape:window-x="688"
     inkscape:window-y="481"
     inkscape:window-maximized="0"
     inkscape:current-layer="svg75"
     inkscape:document-rotation="0" />
  <g
     aria-label="Vision des Sciences"
     id="text85"
     style="font-style:normal;font-variant:normal;font-weight:500;font-stretch:normal;font-size:19.2413px;line-height:25px;font-family:ClassicSansRounded;-inkscape-font-specification:'ClassicSansRounded, Medium';font-variant-ligatures:normal;font-variant-caps:normal;font-variant-numeric:normal;font-feature-settings:normal;text-align:start;letter-spacing:0px;word-spacing:0px;writing-mode:lr-tb;text-anchor:start;fill:#000000;fill-opacity:1;stroke:none;stroke-width:1px;stroke-linecap:butt;stroke-linejoin:miter;stroke-opacity:1"
     transform="translate(3.36)">
    <path
       d="m 45.984,3.7440013 c -0.672,0 -0.96,0.48 -0.96,1.536 0,0.96 0.288,1.344 0.576,1.344 5.376,0 8.064,1.92 8.064,5.3759997 0,7.392 -9.888,27.648 -15.36,43.104 -0.864,-4.512 -11.52,-32.832 -13.824,-38.688 -0.672,-1.728 -1.056,-3.744 -1.056,-4.704 0,-4.0319997 3.072,-5.3759997 8.832,-5.3759997 0.288,0 0.48,-0.576 0.48,-1.728 0,-0.48 -0.096,-0.864 -0.288,-0.864 -9.024,0.288 -13.728,0.384 -18.048,0.384 -5.088,0 -10.176,-0.192 -17.28,-0.576 -0.288,0 -0.48,1.152 -0.48,1.824 0,0.48 0.096,0.96 0.288,0.96 2.88000005,0.192 5.184,1.536 8.064,6.0479997 2.208,3.552 22.08,53.568 23.616,59.712 0.288,1.248 2.016,1.632 3.648,1.632 1.536,0 3.648,-0.192 3.744,-1.152 0.48,-2.784 21.12,-51.744 23.616,-57.408 2.496,-5.6639997 5.472,-8.1599997 9.12,-8.7359997 0.672,-0.096 0.864,-0.672 0.864,-1.344 0,-0.864 -0.384,-1.44 -0.576,-1.44 -1.536,0.288 -6.912,0.48 -10.848,0.48 -5.184,0 -9.12,-0.096 -12.192,-0.384 z"
       style="font-style:normal;font-variant:normal;font-weight:bold;font-stretch:normal;font-size:96px;font-family:'Baskerville 120 Pro';-inkscape-font-specification:'Baskerville 120 Pro, Bold';font-variant-ligatures:normal;font-variant-caps:normal;font-variant-numeric:normal;font-variant-east-asian:normal"
       id="path8" />
    <path
       d="m 68.543719,34.368001 c 3.072,0 3.552,1.92 3.552,3.456 0,6.528 0.192,14.4 0.192,26.688 0,3.936 -0.768,5.184 -6.432,5.376 -0.192,0 -0.384,0.48 -0.384,0.864 0,1.056 0.192,1.536 0.384,1.536 2.208,0 5.856,-0.288 9.696,-0.288 6.24,0 14.304,0.384 16.416,0.384 0.288,0 0.384,-0.576 0.384,-1.248 0,-0.672 -0.192,-1.44 -0.384,-1.44 -6.24,0 -6.816,-1.632 -6.816,-4.416 0,-10.56 0.96,-33.888 0.96,-36.768 0,-0.768 -1.056,-1.632 -2.112,-1.152 -4.8,2.208 -10.368,3.84 -17.472,4.224 -0.48,0 -0.576,0.768 -0.576,1.536 0,0.672 0.096,1.248 0.576,1.248 z m 17.472,-25.6319997 c 0,-3.936 -3.264,-7.104 -7.392,-7.104 -4.128,0 -7.392,3.168 -7.392,7.104 0,3.9359997 3.264,7.1039997 7.392,7.1039997 4.128,0 7.392,-3.168 7.392,-7.1039997 z"
       style="font-style:normal;font-variant:normal;font-weight:bold;font-stretch:normal;font-size:96px;font-family:'Baskerville 120 Pro';-inkscape-font-specification:'Baskerville 120 Pro, Bold';font-variant-ligatures:normal;font-variant-caps:normal;font-variant-numeric:normal;font-variant-east-asian:normal"
       id="path10" />
    <path
       d="m 123.83964,30.912001 c -1.632,-1.44 -4.608,-3.264 -9.408,-3.264 -7.584,0 -15.552,5.088 -15.552,14.208 0,17.376 20.448,12.864 20.448,22.944 0,3.744 -2.976,5.472 -6.72,5.472 -4.704,0 -10.752,-3.072 -11.808,-12.288 0,-0.384 -0.672,-0.48 -0.96,-0.48 -0.48,0 -1.536,0.384 -1.536,0.768 0,3.36 -0.672,11.232 -0.672,12.768 0,0.384 0.576,0.672 1.056,0.672 0.384,0 0.672,-0.192 0.864,-0.288 0.384,-0.288 0.864,-0.672 1.344,-0.672 0.288,0 1.056,0.384 1.536,0.672 1.92,1.152 5.088,2.4 10.656,2.4 6.432,0 17.28,-3.456 17.28,-14.016 0,-17.184 -21.792,-14.4 -21.792,-23.424 0,-3.36 2.4,-5.376 5.856,-5.376 4.704,0 8.64,3.552 9.696,10.272 0.096,0.576 0.768,0.864 1.344,0.864 0.48,0 1.536,-0.288 1.536,-0.768 0,-3.648 0.672,-10.656 0.672,-11.232 0,-0.48 -0.768,-0.576 -1.632,-0.576 -0.864,0.576 -1.44,1.056 -2.208,1.344 z"
       style="font-style:normal;font-variant:normal;font-weight:bold;font-stretch:normal;font-size:96px;font-family:'Baskerville 120 Pro';-inkscape-font-specification:'Baskerville 120 Pro, Bold';font-variant-ligatures:normal;font-variant-caps:normal;font-variant-numeric:normal;font-variant-east-asian:normal"
       id="path12" />
    <path
       d="m 138.04763,34.368001 c 3.072,0 3.552,1.92 3.552,3.456 0,6.528 0.192,14.4 0.192,26.688 0,3.936 -0.768,5.184 -6.432,5.376 -0.192,0 -0.384,0.48 -0.384,0.864 0,1.056 0.192,1.536 0.384,1.536 2.208,0 5.856,-0.288 9.696,-0.288 6.24,0 14.304,0.384 16.416,0.384 0.288,0 0.384,-0.576 0.384,-1.248 0,-0.672 -0.192,-1.44 -0.384,-1.44 -6.24,0 -6.816,-1.632 -6.816,-4.416 0,-10.56 0.96,-33.888 0.96,-36.768 0,-0.768 -1.056,-1.632 -2.112,-1.152 -4.8,2.208 -10.368,3.84 -17.472,4.224 -0.48,0 -0.576,0.768 -0.576,1.536 0,0.672 0.096,1.248 0.576,1.248 z m 17.472,-25.6319997 c 0,-3.936 -3.264,-7.104 -7.392,-7.104 -4.128,0 -7.392,3.168 -7.392,7.104 0,3.9359997 3.264,7.1039997 7.392,7.1039997 4.128,0 7.392,-3.168 7.392,-7.1039997 z"
       style="font-style:normal;font-variant:normal;font-weight:bold;font-stretch:normal;font-size:96px;font-family:'Baskerville 120 Pro';-inkscape-font-specification:'Baskerville 120 Pro, Bold';font-variant-ligatures:normal;font-variant-caps:normal;font-variant-numeric:normal;font-variant-east-asian:normal"
       id="path14" />
    <path
       d="m 213.31155,50.208001 c 0,-11.712 -8.256,-22.56 -23.424,-22.56 -14.208,0 -24.288,10.08 -24.288,23.424 0,12.384 8.352,22.752 23.328,22.752 13.536,0 24.384,-8.64 24.384,-23.616 z m -23.424,20.352 c -5.952,0 -9.504,-7.584 -9.504,-20.832 0,-13.632 3.36,-18.432 8.928,-18.432 6.432,0 9.504,8.064 9.504,20.064 0,12.96 -2.976,19.2 -8.928,19.2 z"
       style="font-style:normal;font-variant:normal;font-weight:bold;font-stretch:normal;font-size:96px;font-family:'Baskerville 120 Pro';-inkscape-font-specification:'Baskerville 120 Pro, Bold';font-variant-ligatures:normal;font-variant-caps:normal;font-variant-numeric:normal;font-variant-east-asian:normal"
       id="path16" />
    <path
       d="m 221.47142,34.368001 c 2.784,0 3.744,1.344 3.744,4.128 0,5.664 0.192,17.76 0.192,27.936 0,2.592 -0.576,3.168 -5.856,3.456 -0.192,0 -0.384,0.576 -0.384,1.248 0,0.672 0.192,1.248 0.384,1.248 2.784,0 8.64,-0.48 12.576,-0.48 2.976,0 6.816,0.192 10.656,0.192 0.288,0 0.384,-0.672 0.384,-1.248 0,-0.576 -0.096,-1.248 -0.384,-1.248 -2.688,0 -4.224,-0.864 -4.224,-3.072 0,-3.168 0.288,-11.136 0.288,-18.912 0,-7.488 4.224,-12.288 9.024,-12.288 3.552,0 6.624,2.496 6.624,7.968 0,6.048 -0.384,11.712 -0.384,23.04 0,2.304 -0.576,3.168 -4.224,3.168 -0.192,0 -0.384,0.576 -0.384,1.248 0,0.672 0.192,1.248 0.384,1.248 2.976,0 7.296,-0.096 11.616,-0.096 2.688,0 9.024,0.576 12.48,0.576 0.288,0 0.48,-0.768 0.48,-1.44 0,-0.576 -0.192,-1.056 -0.48,-1.056 -6.144,0 -6.432,-0.96 -6.432,-3.936 0,-8.16 0.768,-17.28 0.768,-24.768 0,-9.504 -6.72,-13.632 -13.344,-13.632 -6.432,0 -13.536,4.032 -16.704,10.944 0.192,-3.36 0.576,-7.392 0.576,-10.176 0,-0.384 -0.576,-0.864 -1.536,-0.864 -0.864,0 -9.408,4.032 -17.568,4.032 -0.48,0 -0.576,0.672 -0.576,1.44 0,0.96 0.192,1.344 0.576,1.344 z"
       style="font-style:normal;font-variant:normal;font-weight:bold;font-stretch:normal;font-size:96px;font-family:'Baskerville 120 Pro';-inkscape-font-specification:'Baskerville 120 Pro, Bold';font-variant-ligatures:normal;font-variant-caps:normal;font-variant-numeric:normal;font-variant-east-asian:normal"
       id="path18" />
    <path
       d="m 334.75117,62.208001 c -2.016,4.32 -4.608,5.376 -8.928,5.376 -5.664,0 -9.888,-4.608 -9.888,-16.8 0,-11.52 4.608,-17.472 10.56,-17.472 4.608,0 8.64,2.976 8.64,6.912 0,6.528 0,13.44 -0.384,21.984 z m 18.336,6.048 c -2.88,-0.192 -4.992,-0.864 -4.992,-3.744 0,-5.28 0,-20.352 0.768,-38.88 0.48,-17.2799997 0.48,-23.4239997 0.48,-24.76799966 0,-0.384 -0.48,-0.8639999972266 -1.536,-0.8639999972266 -0.768,0 -11.904,1.5359999572266 -20.064,1.5359999572266 -0.384,0 -0.48,0.672 -0.48,1.44 0,0.672 0.096,1.248 0.48,1.248 5.856,0 7.2,0.864 7.2,4.608 0,3.0719997 0.384,14.3999997 0.288,24.4799997 -3.264,-3.648 -6.624,-5.664 -13.824,-5.664 -11.616,0 -21.12,9.504 -21.12,23.808 0,13.92 10.08,22.368 20.256,22.368 6.144,0 10.944,-2.592 14.976,-6.816 0,2.304 -0.384,5.952 -0.384,6.72 0,0.768 0.192,1.056 1.056,1.056 0.576,0 1.44,-0.384 2.688,-0.768 3.264,-0.96 13.728,-2.496 16.992,-2.496 0.48,0 0.672,-0.576 0.672,-1.632 0,-0.768 -0.096,-1.44 -0.96,-1.44 z"
       style="font-style:normal;font-variant:normal;font-weight:bold;font-stretch:normal;font-size:96px;font-family:'Baskerville 120 Pro';-inkscape-font-specification:'Baskerville 120 Pro, Bold';font-variant-ligatures:normal;font-variant-caps:normal;font-variant-numeric:normal;font-variant-east-asian:normal"
       id="path20" />
    <path
       d="m 400.31899,62.592001 c 0,-1.248 -1.248,-1.92 -1.92,-1.92 -0.384,0 -0.672,0.096 -0.864,0.384 -2.112,3.072 -5.76,3.84 -10.08,3.84 -9.408,0 -14.4,-7.776 -14.4,-17.184 0,-1.536 0.096,-2.4 0.192,-3.168 6.336,0.096 19.392,0.192 26.304,0.192 1.344,0 1.824,-0.384 1.824,-1.536 0,-7.104 -5.376,-15.552 -17.952,-15.552 -14.88,0 -23.04,11.808 -23.04,23.52 0,14.4 9.696,22.656 22.656,22.656 10.944,0 14.592,-5.568 17.28,-11.232 z m -26.688,-21.12 c 1.92,-7.2 5.376,-9.888 9.408,-9.888 4.8,0 6.24,3.36 6.24,6.528 0,2.4 -0.48,2.592 -3.744,2.688 -6.912,0.192 -8.736,0.576 -11.904,0.672 z"
       style="font-style:normal;font-variant:normal;font-weight:bold;font-stretch:normal;font-size:96px;font-family:'Baskerville 120 Pro';-inkscape-font-specification:'Baskerville 120 Pro, Bold';font-variant-ligatures:normal;font-variant-caps:normal;font-variant-numeric:normal;font-variant-east-asian:normal"
       id="path22" />
    <path
       d="m 433.82292,30.912001 c -1.632,-1.44 -4.608,-3.264 -9.408,-3.264 -7.584,0 -15.552,5.088 -15.552,14.208 0,17.376 20.448,12.864 20.448,22.944 0,3.744 -2.976,5.472 -6.72,5.472 -4.704,0 -10.752,-3.072 -11.808,-12.288 0,-0.384 -0.672,-0.48 -0.96,-0.48 -0.48,0 -1.536,0.384 -1.536,0.768 0,3.36 -0.672,11.232 -0.672,12.768 0,0.384 0.576,0.672 1.056,0.672 0.384,0 0.672,-0.192 0.864,-0.288 0.384,-0.288 0.864,-0.672 1.344,-0.672 0.288,0 1.056,0.384 1.536,0.672 1.92,1.152 5.088,2.4 10.656,2.4 6.432,0 17.28,-3.456 17.28,-14.016 0,-17.184 -21.792,-14.4 -21.792,-23.424 0,-3.36 2.4,-5.376 5.856,-5.376 4.704,0 8.64,3.552 9.696,10.272 0.096,0.576 0.768,0.864 1.344,0.864 0.48,0 1.536,-0.288 1.536,-0.768 0,-3.648 0.672,-10.656 0.672,-11.232 0,-0.48 -0.768,-0.576 -1.632,-0.576 -0.864,0.576 -1.44,1.056 -2.208,1.344 z"
       style="font-style:normal;font-variant:normal;font-weight:bold;font-stretch:normal;font-size:96px;font-family:'Baskerville 120 Pro';-inkscape-font-specification:'Baskerville 120 Pro, Bold';font-variant-ligatures:normal;font-variant-caps:normal;font-variant-numeric:normal;font-variant-east-asian:normal"
       id="path24" />
    <path
       d="m 470.39873,70.272001 c 0,0.864 0.96,1.248 1.824,1.248 0.48,0 1.344,-0.192 1.344,-0.48 0,-1.44 0.96,-3.456 2.496,-3.456 2.592,0 6.72,6.24 19.968,6.24 11.808,0 23.616,-7.968 23.616,-20.928 0,-30.144 -35.136,-19.488 -35.136,-36.48 0,-6.4319997 3.744,-10.5599997 10.56,-10.5599997 10.944,0 15.552,8.4479997 15.552,17.5679997 0,0.672 0.672,0.96 1.536,0.96 0.768,0 1.44,-0.288 1.44,-0.864 0,-4.224 0.96,-18.9119997 0.96,-19.6799997 0,-0.48 -0.576,-0.768 -1.44,-0.768 -0.672,0 -1.344,0.192 -1.44,0.48 -0.48,1.632 -1.44,1.824 -2.304,1.824 -1.632,0 -5.376,-3.36 -14.304,-3.36 -13.248,0 -22.752,8.9279997 -22.752,20.5439997 0,25.92 34.368,17.184 34.368,36.48 0,6.432 -3.36,10.944 -11.616,10.944 -10.656,0 -20.16,-8.736 -20.16,-22.752 0,-0.48 -0.576,-0.576 -1.248,-0.576 -0.864,0 -1.824,0.384 -1.824,0.864 0,3.936 -0.672,18.432 -1.44,22.752 z"
       style="font-style:normal;font-variant:normal;font-weight:bold;font-stretch:normal;font-size:96px;font-family:'Baskerville 120 Pro';-inkscape-font-specification:'Baskerville 120 Pro, Bold';font-variant-ligatures:normal;font-variant-caps:normal;font-variant-numeric:normal;font-variant-east-asian:normal"
       id="path26" />
    <path
       d="m 569.18264,61.824001 c 0,-1.344 -1.056,-2.112 -2.016,-2.112 -0.288,0 -0.672,0.192 -0.768,0.384 -1.728,3.36 -6.432,5.472 -10.176,5.472 -6.72,0 -12.096,-5.088 -12.096,-16.32 0,-12.288 2.784,-17.184 8.64,-17.184 3.264,0 5.472,2.592 6.432,5.472 0.768,2.112 2.688,3.648 4.416,3.648 2.496,0 4.992,-1.92 4.992,-4.896 0,-4.704 -4.512,-8.64 -15.168,-8.64 -16.416,0 -23.616,13.056 -23.616,23.232 0,14.592 10.08,22.944 21.984,22.944 7.776,0 14.112,-3.552 17.376,-12 z"
       style="font-style:normal;font-variant:normal;font-weight:bold;font-stretch:normal;font-size:96px;font-family:'Baskerville 120 Pro';-inkscape-font-specification:'Baskerville 120 Pro, Bold';font-variant-ligatures:normal;font-variant-caps:normal;font-variant-numeric:normal;font-variant-east-asian:normal"
       id="path28" />
    <path
       d="m 576.0945,34.368001 c 3.072,0 3.552,1.92 3.552,3.456 0,6.528 0.192,14.4 0.192,26.688 0,3.936 -0.768,5.184 -6.432,5.376 -0.192,0 -0.384,0.48 -0.384,0.864 0,1.056 0.192,1.536 0.384,1.536 2.208,0 5.856,-0.288 9.696,-0.288 6.24,0 14.304,0.384 16.416,0.384 0.288,0 0.384,-0.576 0.384,-1.248 0,-0.672 -0.192,-1.44 -0.384,-1.44 -6.24,0 -6.816,-1.632 -6.816,-4.416 0,-10.56 0.96,-33.888 0.96,-36.768 0,-0.768 -1.056,-1.632 -2.112,-1.152 -4.8,2.208 -10.368,3.84 -17.472,4.224 -0.48,0 -0.576,0.768 -0.576,1.536 0,0.672 0.096,1.248 0.576,1.248 z m 17.472,-25.6319997 c 0,-3.936 -3.264,-7.104 -7.392,-7.104 -4.128,0 -7.392,3.168 -7.392,7.104 0,3.9359997 3.264,7.1039997 7.392,7.1039997 4.128,0 7.392,-3.168 7.392,-7.1039997 z"
       style="font-style:normal;font-variant:normal;font-weight:bold;font-stretch:normal;font-size:96px;font-family:'Baskerville 120 Pro';-inkscape-font-specification:'Baskerville 120 Pro, Bold';font-variant-ligatures:normal;font-variant-caps:normal;font-variant-numeric:normal;font-variant-east-asian:normal"
       id="path30" />
    <path
       d="m 644.35042,62.592001 c 0,-1.248 -1.248,-1.92 -1.92,-1.92 -0.384,0 -0.672,0.096 -0.864,0.384 -2.112,3.072 -5.76,3.84 -10.08,3.84 -9.408,0 -14.4,-7.776 -14.4,-17.184 0,-1.536 0.096,-2.4 0.192,-3.168 6.336,0.096 19.392,0.192 26.304,0.192 1.344,0 1.824,-0.384 1.824,-1.536 0,-7.104 -5.376,-15.552 -17.952,-15.552 -14.88,0 -23.04,11.808 -23.04,23.52 0,14.4 9.696,22.656 22.656,22.656 10.944,0 14.592,-5.568 17.28,-11.232 z m -26.688,-21.12 c 1.92,-7.2 5.376,-9.888 9.408,-9.888 4.8,0 6.24,3.36 6.24,6.528 0,2.4 -0.48,2.592 -3.744,2.688 -6.912,0.192 -8.736,0.576 -11.904,0.672 z"
       style="font-style:normal;font-variant:normal;font-weight:bold;font-stretch:normal;font-size:96px;font-family:'Baskerville 120 Pro';-inkscape-font-specification:'Baskerville 120 Pro, Bold';font-variant-ligatures:normal;font-variant-caps:normal;font-variant-numeric:normal;font-variant-east-asian:normal"
       id="path32" />
    <path
       d="m 653.08635,34.368001 c 2.784,0 3.744,1.344 3.744,4.128 0,5.664 0.192,17.76 0.192,27.936 0,2.592 -0.576,3.168 -5.856,3.456 -0.192,0 -0.384,0.576 -0.384,1.248 0,0.672 0.192,1.248 0.384,1.248 2.784,0 8.64,-0.48 12.576,-0.48 2.976,0 6.816,0.192 10.656,0.192 0.288,0 0.384,-0.672 0.384,-1.248 0,-0.576 -0.096,-1.248 -0.384,-1.248 -2.688,0 -4.224,-0.864 -4.224,-3.072 0,-3.168 0.288,-11.136 0.288,-18.912 0,-7.488 4.224,-12.288 9.024,-12.288 3.552,0 6.624,2.496 6.624,7.968 0,6.048 -0.384,11.712 -0.384,23.04 0,2.304 -0.576,3.168 -4.224,3.168 -0.192,0 -0.384,0.576 -0.384,1.248 0,0.672 0.192,1.248 0.384,1.248 2.976,0 7.296,-0.096 11.616,-0.096 2.688,0 9.024,0.576 12.48,0.576 0.288,0 0.48,-0.768 0.48,-1.44 0,-0.576 -0.192,-1.056 -0.48,-1.056 -6.144,0 -6.432,-0.96 -6.432,-3.936 0,-8.16 0.768,-17.28 0.768,-24.768 0,-9.504 -6.72,-13.632 -13.344,-13.632 -6.432,0 -13.536,4.032 -16.704,10.944 0.192,-3.36 0.576,-7.392 0.576,-10.176 0,-0.384 -0.576,-0.864 -1.536,-0.864 -0.864,0 -9.408,4.032 -17.568,4.032 -0.48,0 -0.576,0.672 -0.576,1.44 0,0.96 0.192,1.344 0.576,1.344 z"
       style="font-style:normal;font-variant:normal;font-weight:bold;font-stretch:normal;font-size:96px;font-family:'Baskerville 120 Pro';-inkscape-font-specification:'Baskerville 120 Pro, Bold';font-variant-ligatures:normal;font-variant-caps:normal;font-variant-numeric:normal;font-variant-east-asian:normal"
       id="path34" />
    <path
       d="m 750.52627,61.824001 c 0,-1.344 -1.056,-2.112 -2.016,-2.112 -0.288,0 -0.672,0.192 -0.768,0.384 -1.728,3.36 -6.432,5.472 -10.176,5.472 -6.72,0 -12.096,-5.088 -12.096,-16.32 0,-12.288 2.784,-17.184 8.64,-17.184 3.264,0 5.472,2.592 6.432,5.472 0.768,2.112 2.688,3.648 4.416,3.648 2.496,0 4.992,-1.92 4.992,-4.896 0,-4.704 -4.512,-8.64 -15.168,-8.64 -16.416,0 -23.616,13.056 -23.616,23.232 0,14.592 10.08,22.944 21.984,22.944 7.776,0 14.112,-3.552 17.376,-12 z"
       style="font-style:normal;font-variant:normal;font-weight:bold;font-stretch:normal;font-size:96px;font-family:'Baskerville 120 Pro';-inkscape-font-specification:'Baskerville 120 Pro, Bold';font-variant-ligatures:normal;font-variant-caps:normal;font-variant-numeric:normal;font-variant-east-asian:normal"
       id="path36" />
    <path
       d="m 795.55013,62.592001 c 0,-1.248 -1.248,-1.92 -1.92,-1.92 -0.384,0 -0.672,0.096 -0.864,0.384 -2.112,3.072 -5.76,3.84 -10.08,3.84 -9.408,0 -14.4,-7.776 -14.4,-17.184 0,-1.536 0.096,-2.4 0.192,-3.168 6.336,0.096 19.392,0.192 26.304,0.192 1.344,0 1.824,-0.384 1.824,-1.536 0,-7.104 -5.376,-15.552 -17.952,-15.552 -14.88,0 -23.04,11.808 -23.04,23.52 0,14.4 9.696,22.656 22.656,22.656 10.944,0 14.592,-5.568 17.28,-11.232 z m -26.688,-21.12 c 1.92,-7.2 5.376,-9.888 9.408,-9.888 4.8,0 6.24,3.36 6.24,6.528 0,2.4 -0.48,2.592 -3.744,2.688 -6.912,0.192 -8.736,0.576 -11.904,0.672 z"
       style="font-style:normal;font-variant:normal;font-weight:bold;font-stretch:normal;font-size:96px;font-family:'Baskerville 120 Pro';-inkscape-font-specification:'Baskerville 120 Pro, Bold';font-variant-ligatures:normal;font-variant-caps:normal;font-variant-numeric:normal;font-variant-east-asian:normal"
       id="path38" />
    <path
       d="m 829.05406,30.912001 c -1.632,-1.44 -4.608,-3.264 -9.408,-3.264 -7.584,0 -15.552,5.088 -15.552,14.208 0,17.376 20.448,12.864 20.448,22.944 0,3.744 -2.976,5.472 -6.72,5.472 -4.704,0 -10.752,-3.072 -11.808,-12.288 0,-0.384 -0.672,-0.48 -0.96,-0.48 -0.48,0 -1.536,0.384 -1.536,0.768 0,3.36 -0.672,11.232 -0.672,12.768 0,0.384 0.576,0.672 1.056,0.672 0.384,0 0.672,-0.192 0.864,-0.288 0.384,-0.288 0.864,-0.672 1.344,-0.672 0.288,0 1.056,0.384 1.536,0.672 1.92,1.152 5.088,2.4 10.656,2.4 6.432,0 17.28,-3.456 17.28,-14.016 0,-17.184 -21.792,-14.4 -21.792,-23.424 0,-3.36 2.4,-5.376 5.856,-5.376 4.704,0 8.64,3.552 9.696,10.272 0.096,0.576 0.768,0.864 1.344,0.864 0.48,0 1.536,-0.288 1.536,-0.768 0,-3.648 0.672,-10.656 0.672,-11.232 0,-0.48 -0.768,-0.576 -1.632,-0.576 -0.864,0.576 -1.44,1.056 -2.208,1.344 z"
       style="font-style:normal;font-variant:normal;font-weight:bold;font-stretch:normal;font-size:96px;font-family:'Baskerville 120 Pro';-inkscape-font-specification:'Baskerville 120 Pro, Bold';font-variant-ligatures:normal;font-variant-caps:normal;font-variant-numeric:normal;font-variant-east-asian:normal"
       id="path40" />
  </g>
</svg>
